<svg width="449" height="129" viewBox="0 0 449 129" fill="none" xmlns="http://www.w3.org/2000/svg">
<path d="M29.84 30H27.8V22.392H18.56V30H16.52V13.2H18.56V20.472H27.8V13.2H29.84V30ZM34.6556 21.48L34.1516 19.944C35.2236 19.288 36.4236 18.96 37.7516 18.96C39.2076 18.96 40.2636 19.32 40.9196 20.04C41.5756 20.76 41.9036 21.872 41.9036 23.376V30H40.0796V28.608C39.2316 29.648 38.0796 30.168 36.6236 30.168C35.6316 30.168 34.8316 29.872 34.2236 29.28C33.6156 28.672 33.3116 27.856 33.3116 26.832C33.3116 25.776 33.6876 24.944 34.4396 24.336C35.1916 23.712 36.1756 23.4 37.3916 23.4C38.5276 23.4 39.4236 23.632 40.0796 24.096C40.0796 22.88 39.9116 22.008 39.5756 21.48C39.2396 20.952 38.5916 20.688 37.6316 20.688C36.6556 20.688 35.6636 20.952 34.6556 21.48ZM37.2956 28.44C38.3676 28.44 39.2956 27.976 40.0796 27.048V25.68C39.4076 25.2 38.5996 24.96 37.6556 24.96C36.9996 24.96 36.4476 25.12 35.9996 25.44C35.5676 25.744 35.3516 26.176 35.3516 26.736C35.3516 27.264 35.5196 27.68 35.8556 27.984C36.2076 28.288 36.6876 28.44 37.2956 28.44ZM53.4226 27.048L54.3346 28.44C53.4066 29.64 52.0226 30.24 50.1826 30.24C48.4546 30.24 47.0546 29.728 45.9826 28.704C44.9266 27.68 44.3986 26.312 44.3986 24.6C44.3986 23.016 44.9186 21.68 45.9586 20.592C46.9986 19.504 48.3026 18.96 49.8706 18.96C51.7586 18.96 53.1746 19.432 54.1186 20.376L53.2306 21.888C52.3986 21.136 51.3666 20.76 50.1346 20.76C49.1266 20.76 48.2546 21.128 47.5186 21.864C46.7986 22.584 46.4386 23.496 46.4386 24.6C46.4386 25.768 46.8066 26.696 47.5426 27.384C48.2946 28.088 49.2226 28.44 50.3266 28.44C51.5746 28.44 52.6066 27.976 53.4226 27.048ZM59.2888 21.12H55.3288V19.2H65.1688V21.12H61.2088V30H59.2888V21.12ZM69.1871 34.8H67.2671V19.2H69.1871V20.472C69.5711 20.024 70.0991 19.664 70.7711 19.392C71.4431 19.104 72.1391 18.96 72.8591 18.96C74.3951 18.96 75.6031 19.472 76.4831 20.496C77.3951 21.504 77.8511 22.816 77.8511 24.432C77.8511 26.08 77.3311 27.464 76.2911 28.584C75.2671 29.688 73.9151 30.24 72.2351 30.24C70.9391 30.24 69.9231 29.992 69.1871 29.496V34.8ZM72.3071 20.76C71.0271 20.76 69.9871 21.256 69.1871 22.248V27.6C70.0351 28.16 70.9951 28.44 72.0671 28.44C73.2031 28.44 74.1071 28.08 74.7791 27.36C75.4671 26.624 75.8111 25.672 75.8111 24.504C75.8111 23.368 75.4991 22.464 74.8751 21.792C74.2511 21.104 73.3951 20.76 72.3071 20.76ZM81.467 28.656C80.411 27.568 79.883 26.216 79.883 24.6C79.883 22.968 80.411 21.624 81.467 20.568C82.539 19.496 83.931 18.96 85.643 18.96C87.355 18.96 88.739 19.496 89.795 20.568C90.867 21.624 91.403 22.968 91.403 24.6C91.403 26.232 90.867 27.584 89.795 28.656C88.739 29.712 87.355 30.24 85.643 30.24C83.947 30.24 82.555 29.712 81.467 28.656ZM82.979 21.84C82.275 22.544 81.923 23.464 81.923 24.6C81.923 25.736 82.267 26.656 82.955 27.36C83.659 28.08 84.555 28.44 85.643 28.44C86.731 28.44 87.619 28.088 88.307 27.384C89.011 26.664 89.363 25.736 89.363 24.6C89.363 23.496 89.011 22.576 88.307 21.84C87.619 21.12 86.731 20.76 85.643 20.76C84.555 20.76 83.667 21.12 82.979 21.84ZM102.693 27.312L103.293 28.824C102.253 29.768 100.901 30.24 99.2373 30.24C97.4773 30.24 96.0773 29.728 95.0373 28.704C93.9813 27.68 93.4533 26.312 93.4533 24.6C93.4533 22.984 93.9493 21.64 94.9413 20.568C95.9173 19.496 97.2773 18.96 99.0213 18.96C100.461 18.96 101.653 19.424 102.597 20.352C103.557 21.264 104.037 22.448 104.037 23.904C104.037 24.368 103.997 24.8 103.917 25.2H95.6133C95.6933 26.208 96.0693 27 96.7413 27.576C97.4293 28.152 98.3093 28.44 99.3813 28.44C100.789 28.44 101.893 28.064 102.693 27.312ZM98.9253 20.76C97.9813 20.76 97.1973 21.024 96.5733 21.552C95.9653 22.08 95.6053 22.776 95.4933 23.64H102.045C101.997 22.744 101.693 22.04 101.133 21.528C100.589 21.016 99.8533 20.76 98.9253 20.76ZM116.482 30H114.562V25.44H108.562V30H106.642V19.2H108.562V23.64H114.562V19.2H116.482V30ZM128.115 21.96L121.875 30H119.955V19.2H121.875V27.24L128.115 19.2H130.035V30H128.115V21.96ZM142.045 27.312L142.645 28.824C141.605 29.768 140.253 30.24 138.589 30.24C136.829 30.24 135.429 29.728 134.389 28.704C133.333 27.68 132.805 26.312 132.805 24.6C132.805 22.984 133.301 21.64 134.293 20.568C135.269 19.496 136.629 18.96 138.373 18.96C139.813 18.96 141.005 19.424 141.949 20.352C142.909 21.264 143.389 22.448 143.389 23.904C143.389 24.368 143.349 24.8 143.269 25.2H134.965C135.045 26.208 135.421 27 136.093 27.576C136.781 28.152 137.661 28.44 138.733 28.44C140.141 28.44 141.245 28.064 142.045 27.312ZM138.277 20.76C137.333 20.76 136.549 21.024 135.925 21.552C135.317 22.08 134.957 22.776 134.845 23.64H141.397C141.349 22.744 141.045 22.04 140.485 21.528C139.941 21.016 139.205 20.76 138.277 20.76Z" fill="white"/>
<path d="M252.72 30H250.68V15.12H241.56V30H239.52V13.2H252.72V30ZM258.882 34.8H256.962V19.2H258.882V20.472C259.266 20.024 259.794 19.664 260.466 19.392C261.138 19.104 261.834 18.96 262.554 18.96C264.09 18.96 265.298 19.472 266.178 20.496C267.09 21.504 267.546 22.816 267.546 24.432C267.546 26.08 267.026 27.464 265.986 28.584C264.962 29.688 263.61 30.24 261.93 30.24C260.634 30.24 259.618 29.992 258.882 29.496V34.8ZM262.002 20.76C260.722 20.76 259.682 21.256 258.882 22.248V27.6C259.73 28.16 260.69 28.44 261.762 28.44C262.898 28.44 263.802 28.08 264.474 27.36C265.162 26.624 265.506 25.672 265.506 24.504C265.506 23.368 265.194 22.464 264.57 21.792C263.946 21.104 263.09 20.76 262.002 20.76ZM270.874 21.48L270.37 19.944C271.442 19.288 272.642 18.96 273.97 18.96C275.426 18.96 276.482 19.32 277.138 20.04C277.794 20.76 278.122 21.872 278.122 23.376V30H276.298V28.608C275.45 29.648 274.298 30.168 272.842 30.168C271.85 30.168 271.05 29.872 270.442 29.28C269.834 28.672 269.53 27.856 269.53 26.832C269.53 25.776 269.906 24.944 270.658 24.336C271.41 23.712 272.394 23.4 273.61 23.4C274.746 23.4 275.642 23.632 276.298 24.096C276.298 22.88 276.13 22.008 275.794 21.48C275.458 20.952 274.81 20.688 273.85 20.688C272.874 20.688 271.882 20.952 270.874 21.48ZM273.514 28.44C274.586 28.44 275.514 27.976 276.298 27.048V25.68C275.626 25.2 274.818 24.96 273.874 24.96C273.218 24.96 272.666 25.12 272.218 25.44C271.786 25.744 271.57 26.176 271.57 26.736C271.57 27.264 271.738 27.68 272.074 27.984C272.426 28.288 272.906 28.44 273.514 28.44ZM284.913 30.24C284.097 30.24 283.233 30.104 282.321 29.832C281.441 29.544 280.817 29.192 280.449 28.776L281.433 27.336C281.865 27.688 282.377 27.976 282.969 28.2C283.577 28.408 284.129 28.512 284.625 28.512C285.457 28.512 286.137 28.352 286.665 28.032C287.193 27.696 287.457 27.264 287.457 26.736C287.457 26.288 287.265 25.944 286.881 25.704C286.513 25.464 286.001 25.344 285.345 25.344H283.521V23.784H285.225C285.769 23.784 286.217 23.64 286.569 23.352C286.921 23.048 287.097 22.68 287.097 22.248C287.097 21.768 286.889 21.392 286.473 21.12C286.057 20.832 285.497 20.688 284.793 20.688C283.657 20.688 282.577 21.088 281.553 21.888L280.809 20.4C281.241 19.952 281.841 19.6 282.609 19.344C283.393 19.088 284.217 18.96 285.081 18.96C286.361 18.96 287.353 19.216 288.057 19.728C288.777 20.24 289.137 20.952 289.137 21.864C289.137 23.112 288.505 23.96 287.241 24.408V24.456C287.945 24.536 288.497 24.816 288.897 25.296C289.297 25.76 289.497 26.328 289.497 27C289.497 27.992 289.073 28.784 288.225 29.376C287.393 29.952 286.289 30.24 284.913 30.24ZM292.735 32.64H290.935V28.2H292.279C292.679 27.704 293.031 26.904 293.335 25.8C293.639 24.68 293.839 23.432 293.935 22.056L294.103 19.2H301.471V28.2H303.271V32.64H301.471V30H292.735V32.64ZM295.903 21L295.783 22.8C295.687 24 295.495 25.096 295.207 26.088C294.919 27.08 294.623 27.784 294.319 28.2H299.551V21H295.903ZM315.201 30H313.281V25.44H307.281V30H305.361V19.2H307.281V23.64H313.281V19.2H315.201V30ZM326.833 21.96L320.593 30H318.673V19.2H320.593V27.24L326.833 19.2H328.753V30H326.833V21.96ZM339.18 19.2H341.7L336.972 24.36L342.156 30H339.492L334.62 24.48L339.18 19.2ZM334.164 30H332.244V19.2H334.164V30Z" fill="white"/>
<path d="M134.56 98H132.52V81.2H141.88V83.12H134.56V98ZM141.194 96.656C140.138 95.568 139.61 94.216 139.61 92.6C139.61 90.968 140.138 89.624 141.194 88.568C142.266 87.496 143.658 86.96 145.37 86.96C147.082 86.96 148.466 87.496 149.522 88.568C150.594 89.624 151.13 90.968 151.13 92.6C151.13 94.232 150.594 95.584 149.522 96.656C148.466 97.712 147.082 98.24 145.37 98.24C143.674 98.24 142.282 97.712 141.194 96.656ZM142.706 89.84C142.002 90.544 141.65 91.464 141.65 92.6C141.65 93.736 141.994 94.656 142.682 95.36C143.386 96.08 144.282 96.44 145.37 96.44C146.458 96.44 147.346 96.088 148.034 95.384C148.738 94.664 149.09 93.736 149.09 92.6C149.09 91.496 148.738 90.576 148.034 89.84C147.346 89.12 146.458 88.76 145.37 88.76C144.282 88.76 143.394 89.12 142.706 89.84ZM155.82 102.8H153.9V87.2H155.82V88.472C156.204 88.024 156.732 87.664 157.404 87.392C158.076 87.104 158.772 86.96 159.492 86.96C161.028 86.96 162.236 87.472 163.116 88.496C164.028 89.504 164.484 90.816 164.484 92.432C164.484 94.08 163.964 95.464 162.924 96.584C161.9 97.688 160.548 98.24 158.868 98.24C157.572 98.24 156.556 97.992 155.82 97.496V102.8ZM158.94 88.76C157.66 88.76 156.62 89.256 155.82 90.248V95.6C156.668 96.16 157.628 96.44 158.7 96.44C159.836 96.44 160.74 96.08 161.412 95.36C162.1 94.624 162.444 93.672 162.444 92.504C162.444 91.368 162.132 90.464 161.508 89.792C160.884 89.104 160.028 88.76 158.94 88.76ZM168.1 96.656C167.044 95.568 166.516 94.216 166.516 92.6C166.516 90.968 167.044 89.624 168.1 88.568C169.172 87.496 170.564 86.96 172.276 86.96C173.988 86.96 175.372 87.496 176.428 88.568C177.5 89.624 178.036 90.968 178.036 92.6C178.036 94.232 177.5 95.584 176.428 96.656C175.372 97.712 173.988 98.24 172.276 98.24C170.58 98.24 169.188 97.712 168.1 96.656ZM169.612 89.84C168.908 90.544 168.556 91.464 168.556 92.6C168.556 93.736 168.9 94.656 169.588 95.36C170.292 96.08 171.188 96.44 172.276 96.44C173.364 96.44 174.252 96.088 174.94 95.384C175.644 94.664 175.996 93.736 175.996 92.6C175.996 91.496 175.644 90.576 174.94 89.84C174.252 89.12 173.364 88.76 172.276 88.76C171.188 88.76 170.3 89.12 169.612 89.84ZM180.696 100.64H178.896V96.2H180.24C180.64 95.704 180.992 94.904 181.296 93.8C181.6 92.68 181.8 91.432 181.896 90.056L182.064 87.2H189.432V96.2H191.232V100.64H189.432V98H180.696V100.64ZM183.864 89L183.744 90.8C183.648 92 183.456 93.096 183.168 94.088C182.88 95.08 182.584 95.784 182.28 96.2H187.512V89H183.864Z" fill="white"/>
<path d="M302.52 84.56L292.32 98H290.52V81.2H292.56V94.64L302.76 81.2H304.56V98H302.52V84.56ZM317.11 95.048L318.022 96.44C317.094 97.64 315.71 98.24 313.87 98.24C312.142 98.24 310.742 97.728 309.67 96.704C308.614 95.68 308.086 94.312 308.086 92.6C308.086 91.016 308.606 89.68 309.646 88.592C310.686 87.504 311.99 86.96 313.558 86.96C315.446 86.96 316.862 87.432 317.806 88.376L316.918 89.888C316.086 89.136 315.054 88.76 313.822 88.76C312.814 88.76 311.942 89.128 311.206 89.864C310.486 90.584 310.126 91.496 310.126 92.6C310.126 93.768 310.494 94.696 311.23 95.384C311.982 96.088 312.91 96.44 314.014 96.44C315.262 96.44 316.294 95.976 317.11 95.048ZM330.245 98H328.325V89H322.445V98H320.525V87.2H330.245V98ZM334.584 96.656C333.528 95.568 333 94.216 333 92.6C333 90.968 333.528 89.624 334.584 88.568C335.656 87.496 337.048 86.96 338.76 86.96C340.472 86.96 341.856 87.496 342.912 88.568C343.984 89.624 344.52 90.968 344.52 92.6C344.52 94.232 343.984 95.584 342.912 96.656C341.856 97.712 340.472 98.24 338.76 98.24C337.064 98.24 335.672 97.712 334.584 96.656ZM336.096 89.84C335.392 90.544 335.04 91.464 335.04 92.6C335.04 93.736 335.384 94.656 336.072 95.36C336.776 96.08 337.672 96.44 338.76 96.44C339.848 96.44 340.736 96.088 341.424 95.384C342.128 94.664 342.48 93.736 342.48 92.6C342.48 91.496 342.128 90.576 341.424 89.84C340.736 89.12 339.848 88.76 338.76 88.76C337.672 88.76 336.784 89.12 336.096 89.84ZM356.181 98H354.261V89.12H350.469L350.349 90.944C350.221 92.432 350.029 93.672 349.773 94.664C349.533 95.64 349.213 96.376 348.813 96.872C348.429 97.352 348.021 97.688 347.589 97.88C347.157 98.056 346.629 98.144 346.005 98.144L345.861 96.272C346.037 96.288 346.221 96.264 346.413 96.2C346.605 96.12 346.813 95.96 347.037 95.72C347.277 95.48 347.485 95.16 347.661 94.76C347.853 94.36 348.021 93.8 348.165 93.08C348.325 92.344 348.429 91.504 348.477 90.56L348.669 87.2H356.181V98ZM369.482 98H367.562V93.44H361.562V98H359.642V87.2H361.562V91.64H367.562V87.2H369.482V98ZM381.115 89.96L374.875 98H372.955V87.2H374.875V95.24L381.115 87.2H383.035V98H381.115V89.96ZM389.117 89.12H385.157V87.2H394.997V89.12H391.037V98H389.117V89.12ZM405.264 95.312L405.864 96.824C404.824 97.768 403.472 98.24 401.808 98.24C400.048 98.24 398.648 97.728 397.608 96.704C396.552 95.68 396.024 94.312 396.024 92.6C396.024 90.984 396.52 89.64 397.512 88.568C398.488 87.496 399.848 86.96 401.592 86.96C403.032 86.96 404.224 87.424 405.168 88.352C406.128 89.264 406.608 90.448 406.608 91.904C406.608 92.368 406.568 92.8 406.488 93.2H398.184C398.264 94.208 398.64 95 399.312 95.576C400 96.152 400.88 96.44 401.952 96.44C403.36 96.44 404.464 96.064 405.264 95.312ZM401.496 88.76C400.552 88.76 399.768 89.024 399.144 89.552C398.536 90.08 398.176 90.776 398.064 91.64H404.616C404.568 90.744 404.264 90.04 403.704 89.528C403.16 89.016 402.424 88.76 401.496 88.76ZM418.103 98H416.183V89.12H412.391L412.271 90.944C412.143 92.432 411.951 93.672 411.695 94.664C411.455 95.64 411.135 96.376 410.735 96.872C410.351 97.352 409.943 97.688 409.511 97.88C409.079 98.056 408.551 98.144 407.927 98.144L407.783 96.272C407.959 96.288 408.143 96.264 408.335 96.2C408.527 96.12 408.735 95.96 408.959 95.72C409.199 95.48 409.407 95.16 409.583 94.76C409.775 94.36 409.943 93.8 410.087 93.08C410.247 92.344 410.351 91.504 410.399 90.56L410.59 87.2H418.103V98ZM425.212 98H421.564V87.2H423.484V90.44H425.452C426.924 90.44 428.004 90.776 428.692 91.448C429.38 92.104 429.724 93.008 429.724 94.16C429.724 95.248 429.364 96.16 428.644 96.896C427.924 97.632 426.78 98 425.212 98ZM425.092 92.24H423.484V96.2H425.068C426.812 96.2 427.684 95.544 427.684 94.232C427.684 92.904 426.82 92.24 425.092 92.24Z" fill="white"/>
<path d="M14.1949 41.5733C50.3139 41.5733 86.131 43.3415 122.45 43.3415C135.639 43.3415 147.348 41.4849 159.19 35.8756C176.686 27.5879 139.102 8.84811 132.568 7.97692C97.6252 3.31787 62.8511 1.80894 28.439 6.11045C20.9972 7.04067 5.12738 8.67756 3.68378 18.7828C3.00375 23.543 0.817439 28.6747 1.91555 33.6162C3.37993 40.2059 17.8025 44.2375 23.0361 45.1097" stroke="white" stroke-width="1.5"/>
<path d="M242.296 45.5731C258.526 48.382 274.18 50.237 290.726 49.0113C297.822 48.4857 304.893 47.7362 312.043 47.2431C320.058 46.6903 327.317 42.1261 335.227 40.6614C343.726 39.0875 356.927 38.8047 363.42 32.3114C375.112 20.6193 357.971 6.36011 347.31 4.01972C323.404 -1.22777 300.707 2.88678 276.875 5.29678C262.052 6.79578 236.491 5.23162 224.516 15.7097C220.294 19.404 212.347 30.482 216.166 36.732C224.087 49.6936 255.111 47.9612 267.052 45.5731" stroke="white" stroke-width="1.5"/>
<path d="M134.435 123.375C155.7 127.331 186.066 124.594 202.414 108.246C220.254 90.406 194.203 67.16 175.89 65.4159C158.033 63.7152 140.241 64.8879 124.219 73.4712C114.644 78.6007 100.149 87.3457 99.1689 99.6017C98.3763 109.508 107.376 122.807 116.949 125.732C132.928 130.615 152.28 124.982 168.032 121.606" stroke="white" stroke-width="1.5"/>
<path d="M270.589 114.534C297.23 118.209 324.21 119.839 351.142 119.839C373.448 119.839 397.434 125.642 418.924 117.285C431.721 112.308 447.412 112.609 447.412 95.9678C447.412 77.2153 426.571 70.7671 411.261 68.1673C389.8 64.5229 370.354 61.4873 348.391 61.4873C330.718 61.4873 316.549 64.7321 299.765 68.462C289.05 70.843 276.361 77.7872 272.357 88.7966C270.68 93.4087 270.589 97.1932 270.589 102.157C270.589 107.284 285.777 109.721 290.039 112.766" stroke="white" stroke-width="1.5"/>
</svg>
