<svg width="937" height="409" viewBox="0 0 937 409" fill="none" xmlns="http://www.w3.org/2000/svg">
<path d="M84.48 37.76H64.32V15.44H56.76V68H64.32V44.96H84.48V68H92.04V15.44H84.48V37.76ZM134.548 34.16H128.068L127.348 37.04L126.988 37.4L126.628 37.04C124.468 34.88 120.868 33.44 117.268 33.44C107.908 33.44 99.9881 40.64 99.9881 51.08C99.9881 61.52 107.908 68.72 117.268 68.72C120.868 68.72 124.468 67.28 126.628 65.12L126.988 64.76L127.348 65.12L128.068 68H134.548V34.16ZM128.068 51.08C128.068 57.2 123.748 62.24 117.628 62.24C110.788 62.24 107.116 57.2 107.116 51.08C107.116 44.96 110.788 39.92 117.628 39.92C123.748 39.92 128.068 44.96 128.068 51.08ZM180.723 61.52H169.059V34.16H162.003V61.52H150.339V34.16H143.211V68H187.851V34.16H180.723V61.52ZM218.7 51.08C218.7 44.96 222.444 39.92 229.284 39.92C233.604 39.92 236.844 42.8 237.996 45.68L243.972 42.08C241.164 37.04 235.764 33.44 228.924 33.44C219.852 33.44 211.644 40.64 211.644 51.08C211.644 61.52 219.852 68.72 228.924 68.72C235.764 68.72 241.236 65.12 244.044 60.08L238.068 56.48C236.916 59.36 233.604 62.24 229.284 62.24C222.444 62.24 218.7 57.2 218.7 51.08ZM279.324 52.88L280.044 50.72C280.044 40.28 272.844 33.44 264.204 33.44C254.844 33.44 247.644 40.64 247.644 51.08C247.644 61.52 255.204 68.72 264.204 68.72C271.044 68.72 276.084 65.12 278.964 60.08L272.916 57.2C271.836 60.08 268.884 62.24 264.564 62.24C258.444 62.24 254.844 57.92 254.844 52.88H279.324ZM264.204 39.92C268.524 39.92 272.124 42.8 272.484 46.544H255.204C256.284 42.8 259.164 39.92 264.204 39.92ZM286.156 83.264H293.284V65.12L293.716 64.76L294.076 65.12C296.236 67.28 299.908 68.72 303.436 68.72C312.796 68.72 320.716 61.52 320.716 51.08C320.716 40.64 312.796 33.44 303.436 33.44C299.836 33.44 296.236 34.88 294.076 37.04L293.716 37.4L293.284 37.04L292.636 34.16H286.156V83.264ZM292.636 51.08C292.636 44.96 296.956 39.92 303.076 39.92C309.916 39.92 313.516 44.96 313.516 51.08C313.516 57.2 309.916 62.24 303.076 62.24C296.956 62.24 292.636 57.2 292.636 51.08ZM327.218 68H341.978C349.898 68 354.578 64.04 354.578 57.92C354.578 54.968 352.85 52.376 349.826 50.72C352.418 49.064 353.858 46.544 353.858 43.88C353.858 38.12 349.538 34.16 341.618 34.16H327.218V68ZM334.274 61.808V53.96H342.698C345.218 53.96 347.378 55.04 347.378 57.92C347.378 60.08 345.578 61.808 342.698 61.808H334.274ZM334.274 47.84V40.352H341.978C344.858 40.352 346.658 41.72 346.658 44.24C346.658 46.76 344.498 47.84 341.978 47.84H334.274ZM361.812 68H370.092L383.556 44.96V68H390.612V34.16H382.332L368.868 57.2V34.16H361.812V68ZM404.114 51.08C404.114 44.96 407.858 39.92 414.698 39.92C419.018 39.92 422.258 42.8 423.41 45.68L429.386 42.08C426.578 37.04 421.178 33.44 414.338 33.44C405.266 33.44 397.058 40.64 397.058 51.08C397.058 61.52 405.266 68.72 414.338 68.72C421.178 68.72 426.65 65.12 429.458 60.08L423.482 56.48C422.33 59.36 419.018 62.24 414.698 62.24C407.858 62.24 404.114 57.2 404.114 51.08ZM452.515 68H459.715V40.64H474.115V68H481.315V34.16H452.515V68ZM487.762 51.08C487.762 61.52 496.042 68.72 505.402 68.72C514.762 68.72 523.042 61.52 523.042 51.08C523.042 40.64 514.762 33.44 505.402 33.44C496.042 33.44 487.762 40.64 487.762 51.08ZM494.962 51.08C494.962 44.96 498.562 39.92 505.402 39.92C512.242 39.92 515.842 44.96 515.842 51.08C515.842 57.2 512.242 62.24 505.402 62.24C498.562 62.24 494.962 57.2 494.962 51.08ZM535.34 53.96H540.02C543.98 53.96 546.5 55.4 546.5 57.92C546.5 60.08 544.7 62.312 540.02 62.312C535.7 62.312 533.54 59.72 533.18 57.2L526.628 59.36C528.14 64.4 532.82 68.72 540.02 68.72C548.66 68.72 553.34 63.68 553.34 58.28C553.34 54.968 551.396 52.376 548.444 50.792C551.108 49.064 552.62 46.4 552.62 43.52C552.62 37.76 547.22 33.44 540.02 33.44C532.82 33.44 527.06 38.48 527.06 43.52H533.828C533.828 41.72 536.06 39.848 540.02 39.848C543.98 39.848 545.78 41.72 545.78 43.88C545.78 46.04 543.98 47.624 540.38 47.624H535.34V53.96ZM559.812 68H574.572C582.492 68 587.172 64.04 587.172 57.92C587.172 54.968 585.444 52.376 582.42 50.72C585.012 49.064 586.452 46.544 586.452 43.88C586.452 38.12 582.132 34.16 574.212 34.16H559.812V68ZM566.868 61.808V53.96H575.292C577.812 53.96 579.972 55.04 579.972 57.92C579.972 60.08 578.172 61.808 575.292 61.808H566.868ZM566.868 47.84V40.352H574.572C577.452 40.352 579.252 41.72 579.252 44.24C579.252 46.76 577.092 47.84 574.572 47.84H566.868ZM637.592 58.64C637.592 60.8 636.152 62.24 633.992 62.24H632.552V68.72L633.632 69.44C640.472 69.44 644.792 65.48 644.792 58.28V40.64H657.032V68H664.232V34.16H637.592V58.64ZM672.855 68H681.135L694.599 44.96V68H701.655V34.16H693.375L679.911 57.2V34.16H672.855V68ZM707.381 40.64H718.181V68H725.381V40.64H736.181V34.16H707.381V40.64ZM759.269 68H774.029C781.949 68 786.629 64.04 786.629 57.92C786.629 54.968 784.901 52.376 781.877 50.72C784.469 49.064 785.909 46.544 785.909 43.88C785.909 38.12 781.589 34.16 773.669 34.16H759.269V68ZM766.325 61.808V53.96H774.749C777.269 53.96 779.429 55.04 779.429 57.92C779.429 60.08 777.629 61.808 774.749 61.808H766.325ZM766.325 47.84V40.352H774.029C776.909 40.352 778.709 41.72 778.709 44.24C778.709 46.76 776.549 47.84 774.029 47.84H766.325ZM826.263 34.16H819.783L819.063 37.04L818.703 37.4L818.343 37.04C816.183 34.88 812.583 33.44 808.983 33.44C799.623 33.44 791.703 40.64 791.703 51.08C791.703 61.52 799.623 68.72 808.983 68.72C812.583 68.72 816.183 67.28 818.343 65.12L818.703 64.76L819.063 65.12L819.783 68H826.263V34.16ZM819.783 51.08C819.783 57.2 815.463 62.24 809.343 62.24C802.503 62.24 798.831 57.2 798.831 51.08C798.831 44.96 802.503 39.92 809.343 39.92C815.463 39.92 819.783 44.96 819.783 51.08ZM852.565 56.192L843.205 34.16H834.925V68H841.405V45.68L849.325 64.4H855.805L863.725 45.68V68H870.205V34.16H861.925L852.565 56.192Z" fill="white"/>
<path d="M592.246 51.08C592.246 61.52 600.526 68.72 609.886 68.72C619.246 68.72 627.526 61.52 627.526 51.08C627.526 40.64 619.246 33.44 609.886 33.44C600.526 33.44 592.246 40.64 592.246 51.08ZM599.446 51.08C599.446 44.96 603.046 39.92 609.886 39.92C616.726 39.92 620.326 44.96 620.326 51.08C620.326 57.2 616.726 62.24 609.886 62.24C603.046 62.24 599.446 57.2 599.446 51.08Z" fill="#1C1C1C"/>
<path d="M226.72 184.64H233.92V176H256.96V184.64H264.16V169.52H259.84V142.16H233.2V164.48C233.2 167.576 231.544 169.376 228.952 169.52H226.72V184.64ZM237.808 169.52C239.392 168.224 240.4 166.352 240.4 163.76V148.64H252.64V169.52H237.808ZM298.723 160.88L299.443 158.72C299.443 148.28 292.243 141.44 283.603 141.44C274.243 141.44 267.043 148.64 267.043 159.08C267.043 169.52 274.603 176.72 283.603 176.72C290.443 176.72 295.483 173.12 298.363 168.08L292.315 165.2C291.235 168.08 288.283 170.24 283.963 170.24C277.843 170.24 274.243 165.92 274.243 160.88H298.723ZM283.603 147.92C287.923 147.92 291.523 150.8 291.883 154.544H274.603C275.683 150.8 278.563 147.92 283.603 147.92ZM306.994 166.64C306.994 168.8 305.554 170.24 303.394 170.24H301.954V176.72L303.034 177.44C309.874 177.44 314.194 173.48 314.194 166.28V148.64H326.434V176H333.634V142.16H306.994V166.64ZM342.258 176H350.538L364.002 152.96V176H371.058V142.16H362.778L349.314 165.2V142.16H342.258V176ZM376.784 148.64H387.584V176H394.784V148.64H405.584V142.16H376.784V148.64ZM412.095 176H422.895C431.535 176 436.575 170.96 436.575 164.12C436.575 157.28 431.535 152.24 422.895 152.24H419.295V142.16H412.095V176ZM419.295 169.592V158.648H423.255C427.215 158.648 429.447 160.88 429.447 164.12C429.447 167.36 427.215 169.592 423.255 169.592H419.295ZM448.685 159.08C448.685 152.96 452.429 147.92 459.269 147.92C463.589 147.92 466.829 150.8 467.981 153.68L473.957 150.08C471.149 145.04 465.749 141.44 458.909 141.44C449.837 141.44 441.629 148.64 441.629 159.08C441.629 169.52 449.837 176.72 458.909 176.72C465.749 176.72 471.221 173.12 474.029 168.08L468.053 164.48C466.901 167.36 463.589 170.24 459.269 170.24C452.429 170.24 448.685 165.2 448.685 159.08ZM485.206 176L496.366 162.176H497.662V176H504.286V142.16H490.246C481.966 142.16 478.006 146.408 478.006 152.528C478.006 156.92 481.966 161.6 488.878 162.176L477.646 175.28V176H485.206ZM484.846 152.24C484.846 149.72 486.574 147.92 489.67 147.92H497.806V156.56H490.03C486.934 156.56 484.846 154.832 484.846 152.24ZM530.976 176H538.176V148.64H552.576V176H559.776V142.16H530.976V176ZM569.823 166.64C569.823 168.8 568.383 170.24 566.223 170.24H564.783V176.72L565.863 177.44C572.703 177.44 577.023 173.48 577.023 166.28V148.64H589.263V176H596.463V142.16H569.823V166.64ZM634.606 160.88L635.326 158.72C635.326 148.28 628.126 141.44 619.486 141.44C610.126 141.44 602.926 148.64 602.926 159.08C602.926 169.52 610.486 176.72 619.486 176.72C626.326 176.72 631.366 173.12 634.246 168.08L628.198 165.2C627.118 168.08 624.166 170.24 619.846 170.24C613.726 170.24 610.126 165.92 610.126 160.88H634.606ZM619.486 147.92C623.806 147.92 627.406 150.8 627.766 154.544H610.486C611.566 150.8 614.446 147.92 619.486 147.92ZM641.437 142.16H648.493V165.2L661.957 142.16H670.237V176H663.181V152.96L649.717 176H641.437V142.16ZM656.413 138.344C662.533 138.344 666.133 134.024 666.133 129.704V129.272H660.301V129.416C660.301 131.216 659.005 133.088 656.413 133.088C653.821 133.088 652.525 131.216 652.525 129.416V129.272H646.693V129.704C646.693 134.024 650.293 138.344 656.413 138.344ZM680.283 166.64C680.283 168.8 678.843 170.24 676.683 170.24H675.243V176.72L676.323 177.44C683.163 177.44 687.483 173.48 687.483 166.28V148.64H699.723V176H706.923V142.16H680.283V166.64ZM715.547 176H723.827L737.291 152.96V176H744.347V142.16H736.067L722.603 165.2V142.16H715.547V176ZM757.849 159.08C757.849 152.96 761.593 147.92 768.433 147.92C772.753 147.92 775.993 150.8 777.145 153.68L783.121 150.08C780.313 145.04 774.913 141.44 768.073 141.44C759.001 141.44 750.793 148.64 750.793 159.08C750.793 169.52 759.001 176.72 768.073 176.72C774.913 176.72 780.385 173.12 783.193 168.08L777.217 164.48C776.065 167.36 772.753 170.24 768.433 170.24C761.593 170.24 757.849 165.2 757.849 159.08ZM786.073 148.64H796.873V176H804.073V148.64H814.873V142.16H786.073V148.64ZM851.236 142.16H844.756L844.036 145.04L843.676 145.4L843.316 145.04C841.156 142.88 837.556 141.44 833.956 141.44C824.596 141.44 816.676 148.64 816.676 159.08C816.676 169.52 824.596 176.72 833.956 176.72C837.556 176.72 841.156 175.28 843.316 173.12L843.676 172.76L844.036 173.12L844.756 176H851.236V142.16ZM844.756 159.08C844.756 165.2 840.436 170.24 834.316 170.24C827.476 170.24 823.804 165.2 823.804 159.08C823.804 152.96 827.476 147.92 834.316 147.92C840.436 147.92 844.756 152.96 844.756 159.08ZM877.538 164.192L868.178 142.16H859.898V176H866.378V153.68L874.298 172.4H880.778L888.698 153.68V176H895.178V142.16H886.898L877.538 164.192ZM903.843 176H912.123L925.587 152.96V176H932.643V142.16H924.363L910.899 165.2V142.16H903.843V176Z" fill="white"/>
<path d="M4.32 284H11.52V269.6H25.92V284H33.12V250.16H25.92V263.12H11.52V250.16H4.32V284ZM74.1263 250.16H67.6463L66.9263 253.04L66.5663 253.4L66.2063 253.04C64.0463 250.88 60.4463 249.44 56.8463 249.44C47.4863 249.44 39.5663 256.64 39.5663 267.08C39.5663 277.52 47.4863 284.72 56.8463 284.72C60.4463 284.72 64.0463 283.28 66.2063 281.12L66.5663 280.76L66.9263 281.12L67.6463 284H74.1263V250.16ZM67.6463 267.08C67.6463 273.2 63.3263 278.24 57.2063 278.24C50.3663 278.24 46.6943 273.2 46.6943 267.08C46.6943 260.96 50.3663 255.92 57.2063 255.92C63.3263 255.92 67.6463 260.96 67.6463 267.08ZM93.9488 260.528L87.1088 250.16H79.1888L89.9888 266.576L78.4688 284H86.3888L93.9488 272.552L101.509 284H109.429L97.9088 266.576L108.709 250.16H100.789L93.9488 260.528ZM151.872 292.64H159.072V284H182.112V292.64H189.312V277.52H184.992V250.16H158.352V272.48C158.352 275.576 156.696 277.376 154.104 277.52H151.872V292.64ZM162.96 277.52C164.544 276.224 165.552 274.352 165.552 271.76V256.64H177.792V277.52H162.96ZM195.058 284H203.338L216.802 260.96V284H223.858V250.16H215.578L202.114 273.2V250.16H195.058V284ZM229.584 256.64H240.384V284H247.584V256.64H258.384V250.16H229.584V256.64ZM264.895 284H275.695C284.335 284 289.375 278.96 289.375 272.12C289.375 265.28 284.335 260.24 275.695 260.24H272.095V250.16H264.895V284ZM272.095 277.592V266.648H276.055C280.015 266.648 282.247 268.88 282.247 272.12C282.247 275.36 280.015 277.592 276.055 277.592H272.095ZM313.886 284H321.086V269.6H335.486V284H342.686V250.16H335.486V263.12H321.086V250.16H313.886V284ZM349.133 267.08C349.133 277.52 357.413 284.72 366.773 284.72C376.133 284.72 384.413 277.52 384.413 267.08C384.413 256.64 376.133 249.44 366.773 249.44C357.413 249.44 349.133 256.64 349.133 267.08ZM356.333 267.08C356.333 260.96 359.933 255.92 366.773 255.92C373.613 255.92 377.213 260.96 377.213 267.08C377.213 273.2 373.613 278.24 366.773 278.24C359.933 278.24 356.333 273.2 356.333 267.08ZM390.878 284H405.638C413.558 284 418.238 280.04 418.238 273.92C418.238 270.968 416.51 268.376 413.486 266.72C416.078 265.064 417.518 262.544 417.518 259.88C417.518 254.12 413.198 250.16 405.278 250.16H390.878V284ZM397.934 277.808V269.96H406.358C408.878 269.96 411.038 271.04 411.038 273.92C411.038 276.08 409.238 277.808 406.358 277.808H397.934ZM397.934 263.84V256.352H405.638C408.518 256.352 410.318 257.72 410.318 260.24C410.318 262.76 408.158 263.84 405.638 263.84H397.934ZM425.472 284H437.712C446.352 284 451.392 278.96 451.392 272.12C451.392 265.28 446.352 260.24 437.712 260.24H432.672V250.16H425.472V284ZM454.272 284H461.472V250.16H454.272V284ZM432.672 277.52V266.72H438.072C442.032 266.72 444.192 268.88 444.192 272.12C444.192 275.36 442.032 277.52 438.072 277.52H432.672ZM499.641 268.88L500.361 266.72C500.361 256.28 493.161 249.44 484.521 249.44C475.161 249.44 467.961 256.64 467.961 267.08C467.961 277.52 475.521 284.72 484.521 284.72C491.361 284.72 496.401 281.12 499.281 276.08L493.233 273.2C492.153 276.08 489.201 278.24 484.881 278.24C478.761 278.24 475.161 273.92 475.161 268.88H499.641ZM484.521 255.92C488.841 255.92 492.441 258.8 492.801 262.544H475.521C476.601 258.8 479.481 255.92 484.521 255.92ZM529.601 269.96H534.281C538.241 269.96 540.761 271.4 540.761 273.92C540.761 276.08 538.961 278.312 534.281 278.312C529.961 278.312 527.801 275.72 527.441 273.2L520.889 275.36C522.401 280.4 527.081 284.72 534.281 284.72C542.921 284.72 547.601 279.68 547.601 274.28C547.601 270.968 545.657 268.376 542.705 266.792C545.369 265.064 546.881 262.4 546.881 259.52C546.881 253.76 541.481 249.44 534.281 249.44C527.081 249.44 521.321 254.48 521.321 259.52H528.089C528.089 257.72 530.321 255.848 534.281 255.848C538.241 255.848 540.041 257.72 540.041 259.88C540.041 262.04 538.241 263.624 534.641 263.624H529.601V269.96ZM554.074 284H568.834C576.754 284 581.434 280.04 581.434 273.92C581.434 270.968 579.706 268.376 576.682 266.72C579.274 265.064 580.714 262.544 580.714 259.88C580.714 254.12 576.394 250.16 568.474 250.16H554.074V284ZM561.13 277.808V269.96H569.554C572.074 269.96 574.234 271.04 574.234 273.92C574.234 276.08 572.434 277.808 569.554 277.808H561.13ZM561.13 263.84V256.352H568.834C571.714 256.352 573.514 257.72 573.514 260.24C573.514 262.76 571.354 263.84 568.834 263.84H561.13ZM598.773 270.464L591.285 250.16H584.013L595.389 279.536L588.333 298.4H595.533L613.533 250.16H606.333L598.773 270.464ZM625.75 263.84V250.16H618.55V284H625.75V269.6L640.15 284H649.51L632.518 266.432L648.79 250.16H639.43L625.75 263.84ZM653.144 284H661.424L674.888 260.96V284H681.944V250.16H673.664L660.2 273.2V250.16H653.144V284Z" fill="white"/>
<path d="M111.566 267.08C111.566 277.52 119.846 284.72 129.206 284.72C138.566 284.72 146.846 277.52 146.846 267.08C146.846 256.64 138.566 249.44 129.206 249.44C119.846 249.44 111.566 256.64 111.566 267.08ZM118.766 267.08C118.766 260.96 122.366 255.92 129.206 255.92C136.046 255.92 139.646 260.96 139.646 267.08C139.646 273.2 136.046 278.24 129.206 278.24C122.366 278.24 118.766 273.2 118.766 267.08Z" fill="#1C1C1C"/>
<path d="M178.48 378.464L170.992 358.16H163.72L175.096 387.536L168.04 406.4H175.24L193.24 358.16H186.04L178.48 378.464ZM202.261 377.96H206.941C210.901 377.96 213.421 379.4 213.421 381.92C213.421 384.08 211.621 386.312 206.941 386.312C202.621 386.312 200.461 383.72 200.101 381.2L193.549 383.36C195.061 388.4 199.741 392.72 206.941 392.72C215.581 392.72 220.261 387.68 220.261 382.28C220.261 378.968 218.317 376.376 215.365 374.792C218.029 373.064 219.541 370.4 219.541 367.52C219.541 361.76 214.141 357.44 206.941 357.44C199.741 357.44 193.981 362.48 193.981 367.52H200.749C200.749 365.72 202.981 363.848 206.941 363.848C210.901 363.848 212.701 365.72 212.701 367.88C212.701 370.04 210.901 371.624 207.301 371.624H202.261V377.96ZM226.734 392H233.934V377.6H248.334V392H255.534V358.16H248.334V371.12H233.934V358.16H226.734V392ZM296.54 358.16H290.06L289.34 361.04L288.98 361.4L288.62 361.04C286.46 358.88 282.86 357.44 279.26 357.44C269.9 357.44 261.98 364.64 261.98 375.08C261.98 385.52 269.9 392.72 279.26 392.72C282.86 392.72 286.46 391.28 288.62 389.12L288.98 388.76L289.34 389.12L290.06 392H296.54V358.16ZM290.06 375.08C290.06 381.2 285.74 386.24 279.62 386.24C272.78 386.24 269.108 381.2 269.108 375.08C269.108 368.96 272.78 363.92 279.62 363.92C285.74 363.92 290.06 368.96 290.06 375.08ZM302.323 364.64H313.123V392H320.323V364.64H331.123V358.16H302.323V364.64ZM337.634 392H348.434C357.074 392 362.114 386.96 362.114 380.12C362.114 373.28 357.074 368.24 348.434 368.24H344.834V358.16H337.634V392ZM344.834 385.592V374.648H348.794C352.754 374.648 354.986 376.88 354.986 380.12C354.986 383.36 352.754 385.592 348.794 385.592H344.834ZM443.508 392H458.268C466.188 392 470.868 388.04 470.868 381.92C470.868 378.968 469.14 376.376 466.116 374.72C468.708 373.064 470.148 370.544 470.148 367.88C470.148 362.12 465.828 358.16 457.908 358.16H443.508V392ZM450.564 385.808V377.96H458.988C461.508 377.96 463.668 379.04 463.668 381.92C463.668 384.08 461.868 385.808 458.988 385.808H450.564ZM450.564 371.84V364.352H458.268C461.148 364.352 462.948 365.72 462.948 368.24C462.948 370.76 460.788 371.84 458.268 371.84H450.564ZM485.301 371.84V358.16H478.101V392H485.301V377.6L499.701 392H509.061L492.069 374.432L508.341 358.16H498.981L485.301 371.84ZM523.855 378.464L516.367 358.16H509.095L520.471 387.536L513.415 406.4H520.615L538.615 358.16H531.415L523.855 378.464ZM546.349 375.08C546.349 368.96 550.093 363.92 556.933 363.92C561.253 363.92 564.493 366.8 565.645 369.68L571.621 366.08C568.813 361.04 563.413 357.44 556.573 357.44C547.501 357.44 539.293 364.64 539.293 375.08C539.293 385.52 547.501 392.72 556.573 392.72C563.413 392.72 568.885 389.12 571.693 384.08L565.717 380.48C564.565 383.36 561.253 386.24 556.933 386.24C550.093 386.24 546.349 381.2 546.349 375.08ZM609.853 358.16H603.373L602.653 361.04L602.293 361.4L601.933 361.04C599.773 358.88 596.173 357.44 592.573 357.44C583.213 357.44 575.293 364.64 575.293 375.08C575.293 385.52 583.213 392.72 592.573 392.72C596.173 392.72 599.773 391.28 601.933 389.12L602.293 388.76L602.653 389.12L603.373 392H609.853V358.16ZM603.373 375.08C603.373 381.2 599.053 386.24 592.933 386.24C586.093 386.24 582.421 381.2 582.421 375.08C582.421 368.96 586.093 363.92 592.933 363.92C599.053 363.92 603.373 368.96 603.373 375.08ZM629.675 368.528L622.835 358.16H614.915L625.715 374.576L614.195 392H622.115L629.675 380.552L637.235 392H645.155L633.635 374.576L644.435 358.16H636.515L629.675 368.528ZM668.19 382.64C668.19 384.8 666.75 386.24 664.59 386.24H663.15V392.72L664.23 393.44C671.07 393.44 675.39 389.48 675.39 382.28V364.64H687.63V392H694.83V358.16H668.19V382.64ZM703.453 392H710.653V378.32H715.189C716.629 386.96 723.541 392.72 731.893 392.72C741.253 392.72 748.813 385.52 748.813 375.08C748.813 364.64 741.253 357.44 731.893 357.44C723.541 357.44 716.629 363.2 715.189 371.84H710.653V358.16H703.453V392ZM722.173 375.08C722.173 368.6 725.773 363.92 731.893 363.92C738.013 363.92 741.613 368.6 741.613 375.08C741.613 381.56 738.013 386.24 731.893 386.24C725.773 386.24 722.173 381.56 722.173 375.08ZM750.267 400.64H757.467V392H780.507V400.64H787.707V385.52H783.387V358.16H756.747V380.48C756.747 383.576 755.091 385.376 752.499 385.52H750.267V400.64ZM761.355 385.52C762.939 384.224 763.947 382.352 763.947 379.76V364.64H776.187V385.52H761.355ZM822.27 376.88L822.99 374.72C822.99 364.28 815.79 357.44 807.15 357.44C797.79 357.44 790.59 364.64 790.59 375.08C790.59 385.52 798.15 392.72 807.15 392.72C813.99 392.72 819.03 389.12 821.91 384.08L815.862 381.2C814.782 384.08 811.83 386.24 807.51 386.24C801.39 386.24 797.79 381.92 797.79 376.88H822.27ZM807.15 363.92C811.47 363.92 815.07 366.8 815.43 370.544H798.15C799.23 366.8 802.11 363.92 807.15 363.92ZM829.101 358.16H836.157V381.2L849.621 358.16H857.901V392H850.845V368.96L837.381 392H829.101V358.16ZM844.077 354.344C850.197 354.344 853.797 350.024 853.797 345.704V345.272H847.965V345.416C847.965 347.216 846.669 349.088 844.077 349.088C841.485 349.088 840.189 347.216 840.189 345.416V345.272H834.357V345.704C834.357 350.024 837.957 354.344 844.077 354.344ZM864.348 392H872.988V382.64H864.348V392Z" fill="white"/>
<path d="M384.465 375.08C384.465 385.52 392.745 392.72 402.105 392.72C411.465 392.72 419.745 385.52 419.745 375.08C419.745 364.64 411.465 357.44 402.105 357.44C392.745 357.44 384.465 364.64 384.465 375.08ZM391.665 375.08C391.665 368.96 395.265 363.92 402.105 363.92C408.945 363.92 412.545 368.96 412.545 375.08C412.545 381.2 408.945 386.24 402.105 386.24C395.265 386.24 391.665 381.2 391.665 375.08Z" fill="#1C1C1C"/>
<path d="M609.5 32L612.326 40.9521L619.25 34.6125L617.222 43.7784L626.387 41.75L620.048 48.6737L629 51.5L620.048 54.3263L626.387 61.25L617.222 59.2216L619.25 68.3875L612.326 62.0479L609.5 71L606.674 62.0479L599.75 68.3875L601.778 59.2216L592.613 61.25L598.952 54.3263L590 51.5L598.952 48.6737L592.613 41.75L601.778 43.7784L599.75 34.6125L606.674 40.9521L609.5 32Z" fill="#FABBC1"/>
<line x1="113" y1="265.643" x2="149" y2="265.643" stroke="#EE754A" stroke-width="7"/>
<line x1="131.357" y1="248" x2="131.357" y2="284" stroke="#EE754A" stroke-width="7"/>
<line x1="118.574" y1="253.625" x2="143.574" y2="278.625" stroke="#EE754A" stroke-width="7"/>
<line x1="143.117" y1="253.145" x2="118.117" y2="278.145" stroke="#EE754A" stroke-width="7"/>
<path d="M613.5 301.499C678.834 299.666 736.1 296.199 708.5 258.999C680.9 221.799 560.5 230.508 538.5 233.999C516.5 237.491 501.999 245.499 511.5 273.999C521.001 302.499 583 308.166 632 310.999" stroke="white"/>
<line x1="384" y1="374.429" x2="420" y2="374.429" stroke="#EBC068" stroke-width="2"/>
<line x1="402.215" y1="356" x2="402.215" y2="392" stroke="#EBC068" stroke-width="2"/>
<line x1="388.98" y1="361.564" x2="414.435" y2="387.02" stroke="#EBC068" stroke-width="2"/>
<line x1="414.435" y1="360.979" x2="388.979" y2="386.434" stroke="#EBC068" stroke-width="2"/>
</svg>
