<svg width="162" height="35" viewBox="0 0 162 35" fill="none" xmlns="http://www.w3.org/2000/svg">
<path d="M0 6.26866C0 2.80657 2.88676 0 6.44776 0H29.5522C33.1132 0 36 2.80657 36 6.26866V28.7313C36 32.1934 33.1132 35 29.5522 35H6.44776C2.88676 35 0 32.1934 0 28.7313V6.26866Z" fill="#A76F74"/>
<path d="M0 12.2143C0 8.78223 2.88676 6 6.44776 6H29.5522C33.1132 6 36 8.78223 36 12.2143V28.7857C36 32.2178 33.1132 35 29.5522 35H6.44776C2.88676 35 0 32.2178 0 28.7857V12.2143Z" fill="#C88A90"/>
<path d="M0 17.4C0 13.8654 2.88676 11 6.44776 11H29.5522C33.1132 11 36 13.8654 36 17.4V28.6C36 32.1346 33.1132 35 29.5522 35H6.44776C2.88676 35 0 32.1346 0 28.6V17.4Z" fill="#E1A0A7"/>
<path d="M0 23.3529C0 19.8443 2.88676 17 6.44776 17H29.5522C33.1132 17 36 19.8443 36 23.3529V28.6471C36 32.1557 33.1132 35 29.5522 35H6.44776C2.88676 35 0 32.1557 0 28.6471V23.3529Z" fill="#FABBC1"/>
<path d="M52 28.6216H67.6347V24.8378H56.004V1H52V28.6216Z" fill="#FABBC1"/>
<path d="M71.4966 28.6216H75.2337V10.8378H71.4966V28.6216ZM71.4585 7.43243H75.2718V3.27027H71.4585V7.43243Z" fill="#FABBC1"/>
<path d="M85.3667 29C88.9894 29 91.8494 26.5405 91.8494 23.5135C91.8494 20.4865 89.6758 18.8216 86.7014 18.1784L84.7947 17.8C83.4219 17.5351 82.5067 16.8919 82.5067 15.7568C82.5067 14.6216 83.6507 13.7892 85.1761 13.7892C86.7014 13.7892 87.8454 14.6216 87.8454 15.7568H91.6587C91.2774 12.5405 88.4174 10.4595 85.1761 10.4595C82.1254 10.4595 78.8841 12.3513 78.8841 15.7568C78.8841 18.5946 80.9814 20.4108 84.0321 21.1676C84.6422 21.3189 85.2905 21.4703 85.9387 21.5838C87.4641 21.8486 88.2267 22.4162 88.2267 23.5135C88.2267 24.6486 87.2734 25.6703 85.3667 25.6703C83.4601 25.6703 81.9347 24.2703 81.7441 22.3784L78.3121 23.7027C79.0747 26.9189 81.7441 29 85.3667 29Z" fill="#FABBC1"/>
<path d="M93.0128 14.2432H96.4829V23.3243C96.4829 26.7297 98.5421 28.6216 102.355 28.6216L104.453 28.2432V24.8378L102.165 25.2162C101.021 25.2162 100.22 24.4595 100.22 23.3243V14.2432H104.071V10.8378H100.22V3.27027H99.4955L96.4829 7.05405V10.8378H93.0128V14.2432Z" fill="#FABBC1"/>
<path d="M107.917 28.6216H111.654V10.8378H107.917V28.6216ZM107.879 7.43243H111.692V3.27027H107.879V7.43243Z" fill="#FABBC1"/>
<path d="M131.511 10.8378H127.698V21.6216C127.583 23.8162 125.715 25.5946 123.503 25.5946C120.948 25.5946 119.766 24.2324 119.69 21.8108V10.8378H115.876V21.8108C115.876 25.973 118.546 29 123.122 29C124.647 29 126.554 28.2432 127.316 27.1081L127.507 26.9189L127.698 27.1081L128.079 28.6216H131.511V10.8378Z" fill="#FABBC1"/>
<path d="M150.179 13.4865C149.187 11.6324 147.204 10.4595 144.459 10.4595C142.933 10.4595 141.027 11.2162 140.264 12.3514L140.073 12.5405L139.883 12.3514L139.501 10.8378H136.069V28.6216H139.883V17.8757C139.959 15.6811 141.827 13.8649 144.077 13.8649C145.984 13.8649 147.128 15 147.128 17.2703V28.6216H150.941V17.8757C151.018 15.6811 152.886 13.8649 155.136 13.8649C157.043 13.8649 158.187 15 158.187 17.2703V28.6216H162V16.8919C162 13.1081 159.712 10.4595 155.517 10.4595C153.992 10.4595 152.085 11.2162 151.132 12.3514L150.179 13.4865Z" fill="#FABBC1"/>
</svg>
