<svg width="352" height="70" viewBox="0 0 352 70" fill="none" xmlns="http://www.w3.org/2000/svg">
<path d="M71.9667 62.622C116.139 61.3912 154.857 59.064 136.196 34.0898C117.536 9.11565 36.1329 14.9624 21.2586 17.3061C6.3844 19.6499 -3.41986 25.0265 3.00384 44.1599C9.42754 63.2934 51.3454 67.0978 84.4746 69" stroke="white" stroke-width="1.5"/>
<path d="M337.344 25.9092L350.844 43.4092" stroke="white" stroke-width="1.5"/>
<path d="M49 36L57.5 12V29.5L70.5 12V29.5L90.5 17V29.5L105.5 23" stroke="white" stroke-width="1.5"/>
<path d="M175 28.5H295" stroke="white" stroke-width="1.5"/>
<path d="M340.844 15.9087C340.844 24.4092 333.844 31.91 324.844 29.4096C315.844 26.9092 310.344 12.4096 320.344 3.90961C330.344 -4.59039 340.844 7.40831 340.844 15.9087Z" stroke="white" stroke-width="1.5"/>
</svg>
